REM DIRINDEX 1\2\6,1\2\7,1\2\8,1\2\9,1\3\10,1\3\11,1\4\12,1\4\13,1\4\14,1\5\15,1\5\16,1\5\17
REM DIRNAME folder01,folder02,folder03,folder04,folder05,folder06,folder07,folder08,folder09,folder10,folder11,folder12,folder13,folder14,folder15,folder16,folder17
TITLE ""
FILE "1900_2_sec19_1857_1875.mp3" MP3
  TRACK 01 AUDIO
    TITLE "0:"
    INDEX 01 00:00:00
  TRACK 02 AUDIO
    TITLE "13:cjc020_5876"
    INDEX 01 00:00:19
  TRACK 03 AUDIO
    TITLE "0:"
    INDEX 01 00:01:26
  TRACK 04 AUDIO
    TITLE "14:cjc020_5877"
    INDEX 01 00:01:32
  TRACK 05 AUDIO
    TITLE "0:"
    INDEX 01 00:02:32
  TRACK 06 AUDIO
    TITLE "13:cjc020_5878"
    INDEX 01 00:03:10
  TRACK 07 AUDIO
    TITLE "0:"
    INDEX 01 00:04:31
  TRACK 08 AUDIO
    TITLE "14:cjc020_5879"
    INDEX 01 00:04:33
  TRACK 09 AUDIO
    TITLE "0:"
    INDEX 01 00:07:00
  TRACK 10 AUDIO
    TITLE "13:cjc020_5880"
    INDEX 01 00:07:52
  TRACK 11 AUDIO
    TITLE "0:"
    INDEX 01 00:08:68
  TRACK 12 AUDIO
    TITLE "14:cjc020_5881"
    INDEX 01 00:08:72
  TRACK 13 AUDIO
    TITLE "0:"
    INDEX 01 00:11:27
  TRACK 14 AUDIO
    TITLE "13:cjc020_5882"
    INDEX 01 00:12:05
  TRACK 15 AUDIO
    TITLE "0:"
    INDEX 01 00:13:18
  TRACK 16 AUDIO
    TITLE "14:cjc020_5883"
    INDEX 01 00:13:20
  TRACK 17 AUDIO
    TITLE "0:"
    INDEX 01 00:15:32
  TRACK 18 AUDIO
    TITLE "13:cjc020_5884"
    INDEX 01 00:16:12
  TRACK 19 AUDIO
    TITLE "0:"
    INDEX 01 00:17:39
  TRACK 20 AUDIO
    TITLE "14:cjc020_5885"
    INDEX 01 00:17:41
  TRACK 21 AUDIO
    TITLE "0:"
    INDEX 01 00:19:71
  TRACK 22 AUDIO
    TITLE "13:cjc020_5886"
    INDEX 01 00:20:51
  TRACK 23 AUDIO
    TITLE "0:"
    INDEX 01 00:21:45
  TRACK 24 AUDIO
    TITLE "14:cjc020_5887"
    INDEX 01 00:21:47
  TRACK 25 AUDIO
    TITLE "0:"
    INDEX 01 00:22:62
  TRACK 26 AUDIO
    TITLE "13:cjc020_5888"
    INDEX 01 00:23:42
  TRACK 27 AUDIO
    TITLE "0:"
    INDEX 01 00:24:59
  TRACK 28 AUDIO
    TITLE "14:cjc020_5889"
    INDEX 01 00:24:63
  TRACK 29 AUDIO
    TITLE "0:"
    INDEX 01 00:27:38
  TRACK 30 AUDIO
    TITLE "13:cjc020_5890"
    INDEX 01 00:28:17
  TRACK 31 AUDIO
    TITLE "0:"
    INDEX 01 00:29:25
  TRACK 32 AUDIO
    TITLE "14:cjc020_5891"
    INDEX 01 00:29:27
  TRACK 33 AUDIO
    TITLE "0:"
    INDEX 01 00:30:65
  TRACK 34 AUDIO
    TITLE "13:cjc020_5892"
    INDEX 01 00:31:45
  TRACK 35 AUDIO
    TITLE "0:"
    INDEX 01 00:32:50
  TRACK 36 AUDIO
    TITLE "14:cjc020_5893"
    INDEX 01 00:32:54
  TRACK 37 AUDIO
    TITLE "0:"
    INDEX 01 00:35:39
  TRACK 38 AUDIO
    TITLE "13:cjc020_5894"
    INDEX 01 00:36:17
  TRACK 39 AUDIO
    TITLE "0:"
    INDEX 01 00:37:38
  TRACK 40 AUDIO
    TITLE "14:cjc020_5895"
    INDEX 01 00:37:40
  TRACK 41 AUDIO
    TITLE "0:"
    INDEX 01 00:38:51
  TRACK 42 AUDIO
    TITLE "13:cjc020_5896"
    INDEX 01 00:39:29
  TRACK 43 AUDIO
    TITLE "0:"
    INDEX 01 00:40:42
  TRACK 44 AUDIO
    TITLE "14:cjc020_5897"
    INDEX 01 00:40:44
  TRACK 45 AUDIO
    TITLE "0:"
    INDEX 01 00:44:50
  TRACK 46 AUDIO
    TITLE "13:cjc020_5898"
    INDEX 01 00:45:33
  TRACK 47 AUDIO
    TITLE "0:"
    INDEX 01 00:46:41
  TRACK 48 AUDIO
    TITLE "14:cjc020_5899"
    INDEX 01 00:46:45
  TRACK 49 AUDIO
    TITLE "0:"
    INDEX 01 00:49:59
  TRACK 50 AUDIO
    TITLE "13:cjc020_5900"
    INDEX 01 00:50:41
  TRACK 51 AUDIO
    TITLE "0:"
    INDEX 01 00:51:63
  TRACK 52 AUDIO
    TITLE "14:cjc020_5901"
    INDEX 01 00:51:65
  TRACK 53 AUDIO
    TITLE "0:"
    INDEX 01 00:54:56
  TRACK 54 AUDIO
    TITLE "13:cjc020_5902"
    INDEX 01 00:55:34
  TRACK 55 AUDIO
    TITLE "0:"
    INDEX 01 00:56:39
  TRACK 56 AUDIO
    TITLE "14:cjc020_5903"
    INDEX 01 00:56:41
  TRACK 57 AUDIO
    TITLE "0:"
    INDEX 01 00:57:48
  TRACK 58 AUDIO
    TITLE "13:cjc020_5904"
    INDEX 01 00:58:28
  TRACK 59 AUDIO
    TITLE "0:"
    INDEX 01 00:59:32
  TRACK 60 AUDIO
    TITLE "14:cjc020_5905"
    INDEX 01 00:59:34
  TRACK 61 AUDIO
    TITLE "0:"
    INDEX 01 01:02:06
  TRACK 62 AUDIO
    TITLE "12:cjc020_5906"
    INDEX 01 01:03:55
  TRACK 63 AUDIO
    TITLE "0:"
    INDEX 01 01:05:26
  TRACK 64 AUDIO
    TITLE "13:cjc020_5907"
    INDEX 01 01:06:26
  TRACK 65 AUDIO
    TITLE "0:"
    INDEX 01 01:07:35
  TRACK 66 AUDIO
    TITLE "14:cjc020_5908"
    INDEX 01 01:07:39
  TRACK 67 AUDIO
    TITLE "0:"
    INDEX 01 01:10:20
  TRACK 68 AUDIO
    TITLE "13:cjc020_5909"
    INDEX 01 01:11:02
  TRACK 69 AUDIO
    TITLE "0:"
    INDEX 01 01:12:15
  TRACK 70 AUDIO
    TITLE "14:cjc020_5910"
    INDEX 01 01:12:17
  TRACK 71 AUDIO
    TITLE "0:"
    INDEX 01 01:14:63
  TRACK 72 AUDIO
    TITLE "13:cjc020_5911"
    INDEX 01 01:15:39
  TRACK 73 AUDIO
    TITLE "0:"
    INDEX 01 01:16:61
  TRACK 74 AUDIO
    TITLE "14:cjc020_5912"
    INDEX 01 01:16:65
  TRACK 75 AUDIO
    TITLE "0:"
    INDEX 01 01:18:17
  TRACK 76 AUDIO
    TITLE "13:cjc020_5913"
    INDEX 01 01:18:70
  TRACK 77 AUDIO
    TITLE "0:"
    INDEX 01 01:20:04
  TRACK 78 AUDIO
    TITLE "14:cjc020_5914"
    INDEX 01 01:20:10
  TRACK 79 AUDIO
    TITLE "0:"
    INDEX 01 01:21:33
